<svg width="169" height="56" viewBox="0 0 169 56" fill="none" xmlns="http://www.w3.org/2000/svg">
<path fill-rule="evenodd" clip-rule="evenodd" d="M14.3146 38.288C13.1364 38.288 13.2056 38.2187 11.5422 37.2489C9.87876 36.2792 7.66085 34.7553 6.75978 33.7856C5.85878 32.8158 4.68048 31.1532 4.40324 30.3913C4.0567 29.4908 3.57154 28.3132 3.77947 27.6899C3.9181 27.3435 4.19533 26.9972 4.47257 25.9582C4.74982 25.0577 4.47257 23.3951 4.47257 22.8411C4.47257 22.4254 4.12603 21.4556 3.77947 20.6937C3.43291 20.001 2.18533 18.962 1.70016 18.2693C1.21499 17.5766 0.313962 15.4292 0.175343 14.598C0.0367219 13.7668 -0.101898 11.2731 0.106032 10.4419C0.452581 8.71018 0.868442 7.74042 1.2843 6.9092C1.76948 5.80089 3.77947 3.7228 4.47257 3.23792C5.9974 2.19889 7.59154 1.2984 9.53224 0.744248C10.8491 0.328636 11.8195 0.190098 12.9284 0.120828C14.3146 -0.086979 17.9881 -0.0177097 19.3743 0.259367C21.4536 0.744248 23.5329 1.57548 24.9191 2.61451C26.2359 3.7228 26.9984 4.48478 28.0381 6.21651C28.7311 7.3248 29.0085 8.71019 29.3549 9.74919C29.7015 10.8575 29.7708 13.6975 29.7708 14.4595C29.7708 15.2215 29.4936 16.1219 29.4242 16.2605C29.3549 16.3298 28.6618 16.8839 28.6618 17.2995C28.6618 17.7151 28.6618 17.8537 28.8697 18.2C29.0777 18.5464 29.6322 19.7932 29.9093 20.1396C30.1867 20.4858 31.0183 21.8713 31.2263 22.3561C31.4342 22.8411 31.7808 23.3258 31.5035 23.8801C31.2263 24.4342 30.3945 24.2956 29.8401 24.3649C29.3549 24.4342 28.6618 24.3649 28.5233 24.8499C28.4538 25.1268 28.6618 25.4732 28.6618 25.4732C29.0777 25.8196 28.8697 26.5123 28.4538 26.7201C28.1074 26.928 28.0381 26.928 27.6915 27.0663C27.3449 27.2049 27.4143 27.2049 27.6222 27.5513C27.83 27.8977 27.83 28.3132 27.7608 28.5903C27.6915 28.8675 27.2063 28.7982 26.7904 28.9368C26.444 29.0751 26.0974 29.2137 26.0974 29.6987C26.0974 29.9756 26.3052 30.5992 26.0974 31.2225C25.8895 31.7768 25.1963 32.5387 24.5725 32.8158C23.9488 33.0928 22.7011 33.0927 22.008 32.9544C21.315 32.8158 20.1367 32.4001 19.6515 32.2616C19.2356 32.123 18.8198 32.3308 18.2653 32.8849C17.7108 33.4392 17.087 34.4782 16.6712 35.1708C16.2553 35.8637 15.4929 37.1104 15.077 37.5261C15.0077 38.0801 14.3146 38.288 14.3146 38.288Z" fill="#35B34A"/>
<path fill-rule="evenodd" clip-rule="evenodd" d="M6.96624 9.19609H9.94655V18.8245H10.7783V21.3182H12.3031C12.4417 21.1104 12.5803 20.9718 12.6497 20.8332L12.7189 20.764H11.3328V18.0625H10.501V8.71123H9.18415V2.75408C8.62968 2.96189 8.14448 3.1697 7.65934 3.44677H8.76829V4.62435H7.59001V3.44677C7.24348 3.65458 6.96624 3.86239 6.68899 4.0702C4.67899 5.66339 4.33245 6.42535 3.77796 7.74147C3.70866 7.88001 3.70866 7.94925 3.63933 8.0878C3.4314 8.5034 3.15417 9.05756 2.87694 9.54247C2.53038 10.1659 2.18382 10.7893 2.11452 11.1356C1.76797 12.3132 1.69866 14.4605 2.25314 15.361C2.39175 15.5688 2.59968 15.7767 2.87694 15.9845C2.66901 15.7767 2.53038 15.4996 2.53038 15.1532C2.53038 14.5298 3.08487 13.9757 3.70866 13.9757C4.33245 13.9757 4.81759 14.3913 4.88694 15.0147H8.56034V14.4605H7.93657V13.0751H8.56034V12.4518H4.88694C4.74831 13.0059 4.33245 13.3522 3.70866 13.3522C3.08487 13.3522 2.53038 12.7981 2.53038 12.1747C2.53038 11.5512 3.08487 10.9971 3.70866 10.9971C4.26313 10.9971 4.74831 11.4127 4.88694 11.8976H9.04555V13.56H8.42173V13.9757H9.04555V15.5688H4.88694C4.74831 16.0537 4.26313 16.4001 3.77796 16.4001C3.70866 16.4001 3.63933 16.4001 3.50073 16.4001C3.70866 16.5386 3.98589 16.6079 4.19382 16.7464C4.6097 16.9542 4.95622 17.3698 5.16417 17.7854H8.0752V19.725H10.0852V22.7728C10.3624 23.0499 10.6396 23.2578 10.9862 23.2578C11.0555 23.2578 11.1248 23.2578 11.1941 23.2578C11.3328 23.0499 11.6793 22.4266 12.0952 21.8723H10.501V19.3786H9.66932V9.54247H6.96624C6.8969 10.0966 6.41175 10.5122 5.78794 10.5122C5.16417 10.5122 4.6097 9.95806 4.6097 9.33464C4.6097 8.71123 5.16417 8.15708 5.78794 8.15708C6.41175 8.15708 6.8969 8.64194 6.96624 9.19609ZM25.0561 11.0664V7.81071L25.9572 7.74147C26.3038 8.29561 26.5809 8.71123 26.6502 8.91902V9.12685C26.789 9.95806 26.9968 11.8976 26.6502 12.5903C26.5117 12.7981 26.3731 13.0751 26.2345 13.283H23.8086V15.2225C23.7393 15.2225 23.67 15.2225 23.67 15.2225C23.3927 15.1532 23.0463 15.1532 22.769 15.1532C22.2838 15.1532 22.0066 15.2225 21.7986 15.361H15.9766V11.9669H20.1352V5.31704H17.1548V2.40775C18.3331 2.54627 19.7886 2.89263 20.6897 3.23897V13.3522H18.4717C18.4024 12.8674 17.9866 12.521 17.4321 12.521C16.8776 12.521 16.3924 13.0059 16.3924 13.56C16.3924 14.1142 16.8776 14.5991 17.4321 14.5991C17.9173 14.5991 18.3331 14.2527 18.4717 13.7678H21.0363V3.37751C21.2441 3.44677 21.4522 3.58532 21.66 3.65458C22.4223 4.00092 23.1849 4.41656 23.67 4.83218C23.9472 5.10925 24.5016 5.73266 25.0561 6.42535H23.7393V10.9278H23.1156V13.1444C22.9075 13.0059 22.6997 12.8674 22.4223 12.8674C21.8679 12.8674 21.3827 13.3522 21.3827 13.9064C21.3827 14.4605 21.8679 14.9454 22.4223 14.9454C22.8382 14.9454 23.1849 14.7376 23.3234 14.3913H23.3927V14.1142C23.3927 14.0449 23.3927 13.9757 23.3927 13.9064C23.3927 13.8371 23.3927 13.7678 23.3927 13.6986V11.2049H24.0165V6.7717H25.2642C25.4027 6.97949 25.6108 7.18732 25.7493 7.39511L24.7097 7.46439V11.0664C24.2245 11.1356 23.8779 11.5512 23.8779 12.1054C23.8779 12.6595 24.3631 13.1444 24.9175 13.1444C25.472 13.1444 25.9572 12.6595 25.9572 12.1054C25.8879 11.5512 25.5413 11.1356 25.0561 11.0664ZM25.8879 13.7678C25.7493 13.9064 25.6108 14.0449 25.472 14.1835C25.0561 14.5991 24.6404 14.8761 24.2938 15.0147V13.6986H25.8879V13.7678ZM26.3731 13.6986C26.5809 13.4215 26.789 13.0751 26.9968 12.7288C27.4127 11.9669 27.2049 10.0273 27.0661 9.05756V8.84977C26.9276 7.94925 24.4324 5.17849 23.8779 4.62435C23.3927 4.13947 22.5611 3.72385 21.7986 3.37751C21.5907 3.30825 21.3827 3.1697 21.1748 3.10044C19.9966 2.54627 17.5014 2.06139 16.1152 1.99213C15.5607 1.92287 14.7983 1.92287 13.9665 1.92287C12.511 1.92287 11.1941 1.99213 10.501 2.13068C9.18417 2.33849 7.59001 3.03116 6.55038 3.79313C4.47108 5.38632 4.05519 6.21756 3.50073 7.60294C3.4314 7.67218 3.4314 7.81071 3.3621 7.94925C3.15417 8.36487 2.87694 8.91902 2.59968 9.40392C2.25314 10.0966 1.90659 10.72 1.76797 11.0664C1.42142 12.2439 1.2828 14.5298 1.9759 15.5688C2.39175 16.1923 3.2928 16.6079 4.05522 16.9542C4.67899 17.2313 5.16417 18.2703 5.16417 18.4781C5.16417 18.8937 6.48104 20.4177 7.31276 20.764C7.52073 20.8332 7.86725 20.9025 8.14448 20.9718C8.42173 21.0411 8.83759 21.1104 8.90692 21.1797V21.2489C8.90692 21.5259 8.90692 21.9416 9.39206 22.3573C9.46141 22.4266 9.53069 22.4956 9.60001 22.5649V22.6342H9.66932L9.73864 22.7035C10.0852 23.0499 10.501 23.4654 11.0555 23.4654C11.1941 23.4654 11.2635 23.4654 11.4021 23.3963H11.4714V23.327C11.4714 23.327 12.5803 21.5952 12.9269 21.1104C12.9962 20.9718 13.1348 20.9025 13.2042 20.764H13.3428V20.6947C13.4121 20.6254 13.4121 20.6254 13.4814 20.5561C13.8279 20.2792 14.1745 20.002 14.2438 19.6557C14.3131 19.2401 15.4221 18.4089 15.7686 18.3396C16.1152 18.2703 16.8776 18.2703 17.64 18.3396C18.1945 18.4089 18.4717 18.0625 18.749 17.7854C18.8876 17.5776 19.0955 17.4391 19.3034 17.3698H19.3728H19.4421C19.8579 17.3006 20.4818 16.9542 20.967 16.6079H21.0363V16.5386C21.1748 16.4001 21.3827 16.2615 21.4522 16.123C21.66 15.8459 21.7986 15.7074 21.7986 15.7074C21.8679 15.7074 21.8679 15.7074 21.9372 15.6381C22.0066 15.5688 22.2838 15.4996 22.6997 15.4996C22.9768 15.4996 23.2541 15.4996 23.5315 15.5688C23.6008 15.5688 23.67 15.5688 23.7393 15.5688C24.5016 15.5688 25.4027 14.8069 25.6801 14.4605C25.9572 14.2527 26.1652 14.0449 26.3731 13.6986ZM21.4522 15.6381C21.3827 15.7074 21.3134 15.7767 21.2441 15.8459C21.1748 15.9152 21.1056 15.9845 21.0363 16.0537H15.2141V11.0664H19.3728V6.14825H16.2538V2.33849C16.3924 2.33849 16.6004 2.33849 16.739 2.40775V5.66339H19.7193V11.6205H15.5607V15.6381H21.4522ZM20.4123 16.5386C20.0659 16.7464 19.65 16.9542 19.3728 16.9542C19.3034 16.9542 19.3034 16.9542 19.2342 17.0235H14.2438L14.3131 14.322H14.0359V10.0273H18.4717V7.18732H15.4221V2.2692C15.5607 2.2692 15.6993 2.2692 15.8379 2.2692V6.63318H18.9569V10.5122H14.7983V16.5386H20.4123ZM18.6797 17.3698C18.6103 17.4391 18.5411 17.5084 18.4717 17.5776C18.1945 17.8547 17.9866 18.0625 17.64 17.9933C17.2241 17.924 16.8776 17.924 16.531 17.924C16.2538 17.924 15.9766 17.924 15.7686 17.9933V17.924H13.3428V15.7074H12.7189V9.26539H14.0359V2.19994C14.3824 2.19994 14.729 2.19994 15.0755 2.19994V7.46439H18.1252V9.61171H13.6893V14.5991H13.9665L13.8973 17.3006H18.6797V17.3698ZM5.44143 18.1318C5.51071 18.2703 5.51071 18.4089 5.51071 18.4781C5.51071 18.686 6.68901 20.0713 7.45139 20.4177C7.59001 20.487 7.93659 20.5561 8.21382 20.5561C8.76829 20.6254 9.25346 20.6947 9.25346 21.0411C9.25346 21.1104 9.25346 21.1104 9.25346 21.1797C9.25346 21.4568 9.25346 21.7337 9.60001 22.0109V19.9328H7.59001V17.9933H5.44143V18.1318ZM15.1448 18.2703C14.9369 18.4089 14.6596 18.6167 14.4517 18.8245H12.7883V16.7464H11.8179V8.43416H12.7883V2.19994C13.0655 2.19994 13.4121 2.19994 13.6893 2.19994V8.9883H12.3724V16.0537H12.9962V18.2703H15.1448ZM14.1052 19.1708C13.9665 19.3093 13.8973 19.4479 13.8973 19.5864C13.8279 19.7943 13.62 20.0713 13.3428 20.2792H11.8872V17.5776H11.0555V8.22633H9.73864V2.54627C9.94655 2.47701 10.1545 2.47701 10.2931 2.40775V3.44677H11.4714V2.33849C11.7486 2.33849 12.0259 2.33849 12.3031 2.2692V8.15708H11.3328V17.0927H12.3031V19.1708H14.1052ZM7.52073 7.11802C7.52073 7.39511 7.31276 7.60294 7.03552 7.60294H6.34243C6.06518 7.60294 5.85729 7.39511 5.85729 7.11802C5.85729 6.84095 6.06518 6.63318 6.34243 6.63318H7.03552C7.24348 6.63318 7.52073 6.84095 7.52073 7.11802ZM7.52073 5.59411C7.52073 5.87118 7.31276 6.07901 7.03552 6.07901H6.34243C6.06518 6.07901 5.85729 5.87118 5.85729 5.59411C5.85729 5.31704 6.06518 5.10925 6.34243 5.10925H7.03552C7.24348 5.03997 7.52073 5.31704 7.52073 5.59411ZM16.0459 8.64194C16.0459 8.91902 15.8379 9.12685 15.5607 9.12685H14.8676C14.5903 9.12685 14.3824 8.91902 14.3824 8.64194C14.3824 8.36487 14.5903 8.15708 14.8676 8.15708H15.5607C15.8379 8.15708 16.0459 8.36487 16.0459 8.64194ZM19.5807 3.86239C19.5807 4.13947 19.3728 4.34727 19.0955 4.34727H18.4024C18.1252 4.34727 17.9173 4.13947 17.9173 3.86239C17.9173 3.58532 18.1252 3.37751 18.4024 3.37751H19.0955C19.3728 3.30825 19.5807 3.58532 19.5807 3.86239ZM10.2238 7.53364H11.61V6.21756H10.2238V7.53364ZM10.2238 5.59411H11.61V4.27803H10.2238V5.59411ZM16.3231 9.26539H17.7093V8.0878H16.3231V9.26539ZM21.3827 11.5512H22.5611V10.3737H21.3827V11.5512ZM21.3827 9.05756H22.5611V7.88001H21.3827V9.05756ZM21.3827 6.7717H22.5611V5.59411H21.3827V6.7717ZM5.78794 8.5034C5.3028 8.5034 4.95622 8.84977 4.95622 9.33464C4.95622 9.81954 5.3028 10.1659 5.78794 10.1659C6.27313 10.1659 6.61966 9.81954 6.61966 9.33464C6.61966 8.84977 6.27313 8.5034 5.78794 8.5034ZM3.77796 11.2742C3.2928 11.2742 2.94624 11.6205 2.94624 12.1054C2.94624 12.5903 3.2928 12.9366 3.77796 12.9366C4.26313 12.9366 4.6097 12.5903 4.6097 12.1054C4.6097 11.6205 4.19382 11.2742 3.77796 11.2742ZM3.77796 14.322C3.2928 14.322 2.94624 14.6684 2.94624 15.1532C2.94624 15.6381 3.2928 15.9845 3.77796 15.9845C4.26313 15.9845 4.6097 15.6381 4.6097 15.1532C4.6097 14.6684 4.19382 14.322 3.77796 14.322ZM24.8483 11.3434C24.5016 11.3434 24.1552 11.6205 24.1552 12.0361C24.1552 12.3825 24.4324 12.7288 24.8483 12.7288C25.1949 12.7288 25.5413 12.4518 25.5413 12.0361C25.5413 11.6898 25.2642 11.3434 24.8483 11.3434ZM22.2838 13.283C21.9372 13.283 21.5907 13.56 21.5907 13.9757C21.5907 14.322 21.8679 14.6684 22.2838 14.6684C22.6997 14.6684 22.9768 14.3913 22.9768 13.9757C22.9768 13.56 22.6997 13.283 22.2838 13.283ZM17.4321 12.8674C17.0855 12.8674 16.739 13.1444 16.739 13.56C16.739 13.9064 17.0162 14.2527 17.4321 14.2527C17.7786 14.2527 18.1252 13.9757 18.1252 13.56C18.1252 13.1444 17.7786 12.8674 17.4321 12.8674Z" fill="white"/>
<path fill-rule="evenodd" clip-rule="evenodd" d="M50.3582 9.12479C50.8432 9.33257 51.2593 9.60965 51.6057 9.956C51.9521 10.3023 52.2294 10.718 52.4377 11.2029C52.6455 11.6877 52.7841 12.1726 52.7841 12.7268V13.9043C52.7841 14.1814 52.6455 14.3892 52.3684 14.4585L49.5266 15.2204C49.2491 15.2897 49.1105 15.2204 49.1105 14.8741V12.796C49.1105 12.5882 49.0412 12.3804 48.9026 12.2419C48.7641 12.1033 48.5562 12.0341 48.3484 12.0341H48.0708C47.8628 12.0341 47.6549 12.1033 47.5164 12.2419C47.3778 12.3804 47.3085 12.5882 47.3085 12.796V15.6361C47.3085 15.8438 47.3778 16.0517 47.4471 16.2595C47.5164 16.398 47.6549 16.6058 47.7935 16.7444L51.8828 19.8614C52.2294 20.1386 52.4377 20.4848 52.507 20.7619C52.5763 21.0391 52.6455 21.3853 52.7148 21.801V27.2039C52.7148 27.7581 52.5763 28.2429 52.3684 28.7279C52.1602 29.2127 51.8828 29.6284 51.5364 29.9746C51.19 30.321 50.7739 30.5981 50.2889 30.806C49.8037 31.0138 49.3183 31.1522 48.7641 31.1522H47.5856C47.0314 31.1522 46.546 31.0138 46.061 30.806C45.5758 30.5981 45.1597 30.321 44.8133 29.9746C44.4669 29.6284 44.1898 29.2127 43.9819 28.7279C43.7735 28.3815 43.6349 27.8274 43.6349 27.3424V24.2946C43.6349 24.0176 43.7735 23.8098 44.0512 23.7405L46.8928 22.9786C47.1699 22.9093 47.3085 22.9786 47.3085 23.3248V27.2039C47.3085 27.4117 47.3778 27.6196 47.5164 27.7581C47.6549 27.8967 47.8628 27.966 48.0708 27.966H48.3484C48.5562 27.966 48.7641 27.8967 48.9026 27.7581C49.0412 27.6196 49.1105 27.4117 49.1105 27.2039V23.0479C49.1105 22.7708 49.0412 22.5629 48.9719 22.3551C48.9026 22.1474 48.7641 21.9396 48.6255 21.801L44.5362 18.6839C44.1898 18.4068 43.9819 18.1297 43.8429 17.7834C43.7042 17.5063 43.6349 17.0907 43.6349 16.6058V12.8653C43.6349 12.3111 43.7735 11.8262 43.9819 11.3414C44.1898 10.8565 44.4669 10.4409 44.8133 10.0945C45.1597 9.74817 45.5758 9.4711 46.061 9.26331C46.546 9.0555 47.0314 8.91696 47.5856 8.91696H48.7641C49.3183 8.84771 49.873 8.91696 50.3582 9.12479ZM65.6756 12.3111C65.7449 12.3804 65.7449 12.5189 65.6756 12.5882L61.3785 20.6234L65.6064 30.5981C65.6756 30.7367 65.6064 30.806 65.6064 30.8753C65.5371 30.9446 65.4678 31.0138 65.3292 31.0138H62.2103C62.0717 31.0138 62.0024 30.9446 61.8634 30.8753C61.7249 30.806 61.6556 30.7367 61.6556 30.5981L59.3686 25.4029L58.814 26.442V30.5981C58.814 30.8753 58.6754 31.0138 58.3983 31.0138H55.6257C55.3486 31.0138 55.21 30.8753 55.21 30.5981V12.5882C55.21 12.3111 55.3486 12.1726 55.6257 12.1726H58.3983C58.6754 12.1726 58.814 12.3111 58.814 12.5882V18.0604L61.7249 12.5189C61.8634 12.2419 62.0024 12.1726 62.349 12.1726H65.4678C65.6064 12.1726 65.6756 12.2419 65.6756 12.3111ZM71.4977 30.5981C71.4977 30.8753 71.3591 31.0138 71.082 31.0138H68.3094C68.0323 31.0138 67.8937 30.8753 67.8937 30.5981V12.5882C67.8937 12.3111 68.0323 12.1726 68.3094 12.1726H71.082C71.3591 12.1726 71.4977 12.3111 71.4977 12.5882V30.5981ZM82.5179 27.8274V30.5981C82.5179 30.8753 82.3794 31.0138 82.1022 31.0138H74.9634C74.6863 31.0138 74.5475 30.8753 74.5475 30.5981V12.5882C74.5475 12.3111 74.6863 12.1726 74.9634 12.1726H77.7358C78.0129 12.1726 78.1515 12.3111 78.1515 12.5882V27.3424H82.0329C82.3794 27.3424 82.5179 27.5503 82.5179 27.8274ZM92.9146 27.8274V30.5981C92.9146 30.8753 92.7761 31.0138 92.499 31.0138H85.3597C85.0824 31.0138 84.9438 30.8753 84.9438 30.5981V12.5882C84.9438 12.3111 85.0824 12.1726 85.3597 12.1726H88.1321C88.4096 12.1726 88.5482 12.3111 88.5482 12.5882V27.3424H92.4297C92.7761 27.3424 92.9146 27.5503 92.9146 27.8274ZM102.826 9.4711V12.2419C102.826 12.5189 102.687 12.6575 102.41 12.6575H98.8059V17.16H101.925C102.202 17.16 102.341 17.2985 102.341 17.5756V20.3462C102.341 20.6234 102.202 20.7619 101.925 20.7619H98.8059V30.4596C98.8059 30.7367 98.6674 30.8753 98.3903 30.8753H95.6179C95.3406 30.8753 95.202 30.7367 95.202 30.4596V9.4711C95.202 9.19403 95.3406 9.0555 95.6179 9.0555H102.48C102.687 9.0555 102.826 9.19403 102.826 9.4711ZM113.5 30.5981C113.569 30.8753 113.431 31.0138 113.153 31.0138H110.311C110.034 31.0138 109.896 30.8753 109.826 30.5981L109.549 27.481H107.608L107.331 30.5981C107.262 30.8753 107.123 31.0138 106.846 31.0138H104.004C103.727 31.0138 103.589 30.8753 103.658 30.5981L106.014 12.5882C106.084 12.3111 106.222 12.1726 106.5 12.1726H110.658C110.935 12.1726 111.143 12.3111 111.143 12.5882L113.5 30.5981ZM121.956 12.3111C122.441 12.5189 122.857 12.796 123.203 13.1424C123.55 13.4887 123.827 13.9043 124.035 14.3892C124.243 14.8741 124.382 15.359 124.382 15.9131V17.7834C124.382 18.0604 124.243 18.2683 123.965 18.3375L121.124 18.7531C120.847 18.8224 120.708 18.7531 120.708 18.4068V15.9824C120.708 15.7746 120.639 15.5668 120.5 15.4282C120.362 15.2897 120.154 15.2204 119.945 15.2204H119.668C119.46 15.2204 119.253 15.2897 119.114 15.4282C118.975 15.5668 118.906 15.7746 118.906 15.9824V27.0653C118.906 27.2732 118.975 27.481 119.114 27.6196C119.253 27.7581 119.46 27.8274 119.668 27.8274H119.945C120.154 27.8274 120.362 27.7581 120.5 27.6196C120.639 27.481 120.708 27.2732 120.708 27.0653V23.3248C120.708 23.0479 120.847 22.9093 121.124 22.9786L123.965 23.3248C124.243 23.3941 124.382 23.6019 124.382 23.8791V27.2039C124.382 27.7581 124.243 28.2429 124.035 28.7279C123.827 29.2127 123.55 29.6284 123.203 29.9746C122.857 30.321 122.441 30.5981 121.956 30.806C121.471 31.0138 120.985 31.1522 120.431 31.1522H119.253C118.698 31.1522 118.213 31.0138 117.728 30.806C117.242 30.5981 116.827 30.321 116.48 29.9746C116.134 29.6284 115.856 29.2127 115.648 28.7279C115.44 28.2429 115.302 27.7581 115.302 27.2039V15.9131C115.302 15.359 115.44 14.8741 115.648 14.3892C115.856 13.9043 116.134 13.4887 116.48 13.1424C116.827 12.796 117.242 12.5189 117.728 12.3111C118.213 12.1033 118.698 11.9648 119.253 11.9648H120.431C120.985 11.9648 121.471 12.0341 121.956 12.3111ZM134.501 12.6575V15.4282C134.501 15.7053 134.362 15.8438 134.085 15.8438H131.867V30.5981C131.867 30.8753 131.728 31.0138 131.451 31.0138H128.679C128.54 31.0138 128.471 30.9446 128.402 30.8753C128.332 30.806 128.263 30.6674 128.263 30.5289V15.8438H126.045C125.768 15.8438 125.629 15.7053 125.629 15.4282V12.6575C125.629 12.3804 125.768 12.2419 126.045 12.2419H134.154C134.362 12.1726 134.501 12.3111 134.501 12.6575ZM145.244 27.3424C145.244 27.8967 145.105 28.3815 144.897 28.8665C144.689 29.3512 144.412 29.7669 144.066 30.1132C143.719 30.4596 143.303 30.7367 142.818 30.9446C142.333 31.1522 141.848 31.2908 141.293 31.2908H140.115C139.561 31.2908 139.075 31.1522 138.59 30.9446C138.105 30.7367 137.689 30.4596 137.343 30.1132C136.996 29.7669 136.719 29.3512 136.511 28.8665C136.303 28.3815 136.164 27.8967 136.164 27.3424V15.9131C136.164 15.359 136.303 14.8741 136.511 14.3892C136.719 13.9043 136.996 13.4887 137.343 13.1424C137.689 12.796 138.105 12.5189 138.59 12.3111C139.075 12.1033 139.561 11.9648 140.115 11.9648H141.293C141.848 11.9648 142.333 12.1033 142.818 12.3111C143.303 12.5189 143.719 12.796 144.066 13.1424C144.412 13.4887 144.689 13.9043 144.897 14.3892C145.105 14.8741 145.244 15.359 145.244 15.9131V27.3424ZM151.413 30.5981C151.413 30.8753 151.274 31.0138 150.927 31.0138H148.155C147.878 31.0138 147.739 30.8753 147.739 30.5981V12.5882C147.739 12.3111 147.878 12.1726 148.155 12.1726H152.868C153.423 12.1726 153.908 12.3111 154.393 12.5189C154.878 12.7268 155.294 13.0038 155.64 13.3502C155.987 13.6965 156.264 14.1121 156.472 14.597C156.68 15.0819 156.819 15.5668 156.819 16.1209V20C156.819 20.7619 156.611 21.4546 156.126 22.0781C155.64 22.7015 155.086 23.1862 154.462 23.5327L157.442 30.5981C157.512 30.8753 157.373 31.0138 157.096 31.0138H154.254C154.116 31.0138 153.977 30.9446 153.908 30.8753C153.769 30.806 153.7 30.6674 153.7 30.5289L151.413 24.7103V30.5981ZM168.948 12.3111C169.017 12.3804 169.017 12.5189 168.948 12.5882L165.344 23.7405V30.5981C165.344 30.8753 165.205 31.0138 164.928 31.0138H162.086C161.809 31.0138 161.671 30.8753 161.671 30.5981V23.7405L157.997 12.6575C157.928 12.5189 157.997 12.4497 157.997 12.3804C158.066 12.3111 158.136 12.2419 158.274 12.2419H161.601C161.879 12.2419 162.086 12.3804 162.086 12.6575L163.334 18.6839H163.472L164.72 12.6575C164.789 12.3804 164.928 12.2419 165.205 12.2419H168.532C168.809 12.1726 168.879 12.2419 168.948 12.3111ZM109.272 24.0176L108.648 17.0907H108.371L107.747 24.0176H109.272ZM141.501 16.0517C141.501 15.8438 141.432 15.6361 141.293 15.4975C141.155 15.359 140.947 15.2897 140.738 15.2897H140.461C140.253 15.2897 140.046 15.359 139.907 15.4975C139.768 15.6361 139.699 15.8438 139.699 16.0517V27.1348C139.699 27.3424 139.768 27.5503 139.907 27.6889C140.046 27.8274 140.253 27.8967 140.461 27.8967H140.738C140.947 27.8967 141.155 27.8274 141.293 27.6889C141.432 27.5503 141.501 27.3424 141.501 27.1348V16.0517ZM151.413 20.6234H152.452C152.66 20.6234 152.868 20.5541 153.006 20.4155C153.145 20.277 153.214 20.0693 153.214 19.8614V16.3287C153.214 16.1209 153.145 15.9131 153.006 15.7746C152.868 15.6361 152.66 15.5668 152.452 15.5668H151.413V20.6234Z" fill="black"/>
</svg>
